<svg width="60" height="12" viewBox="0 0 60 12" fill="none" xmlns="http://www.w3.org/2000/svg">
<path d="M6.71733 10V2.72727H9.4446C10.0033 2.72727 10.4721 2.82434 10.8509 3.01847C11.232 3.21259 11.5196 3.48485 11.7138 3.83523C11.9103 4.18324 12.0085 4.58925 12.0085 5.05327C12.0085 5.51965 11.9091 5.92448 11.7102 6.26776C11.5137 6.60866 11.2237 6.87263 10.8402 7.05966C10.4567 7.24432 9.98556 7.33665 9.42685 7.33665H7.48438V6.2429H9.24929C9.57599 6.2429 9.84351 6.19792 10.0518 6.10795C10.2602 6.01562 10.4141 5.88187 10.5135 5.70668C10.6153 5.52912 10.6662 5.31132 10.6662 5.05327C10.6662 4.79522 10.6153 4.57505 10.5135 4.39276C10.4117 4.2081 10.2566 4.06842 10.0483 3.97372C9.83996 3.87666 9.57126 3.82812 9.24219 3.82812H8.0348V10H6.71733ZM10.4744 6.70455L12.2749 10H10.8047L9.03622 6.70455H10.4744ZM17.4755 5.98722L16.3036 6.11506C16.2705 5.99669 16.2125 5.88542 16.1296 5.78125C16.0491 5.67708 15.9402 5.59304 15.8029 5.52912C15.6656 5.4652 15.4975 5.43324 15.2987 5.43324C15.0311 5.43324 14.8062 5.49124 14.6239 5.60724C14.444 5.72325 14.3552 5.87358 14.3576 6.05824C14.3552 6.21686 14.4132 6.34588 14.5316 6.44531C14.6523 6.54474 14.8512 6.62642 15.1282 6.69034L16.0586 6.8892C16.5747 7.00047 16.9582 7.17685 17.2092 7.41832C17.4625 7.6598 17.5903 7.97585 17.5927 8.36648C17.5903 8.70975 17.4897 9.01278 17.2908 9.27557C17.0943 9.53598 16.8209 9.73958 16.4705 9.88636C16.1201 10.0331 15.7177 10.1065 15.2631 10.1065C14.5955 10.1065 14.0581 9.96686 13.6509 9.6875C13.2437 9.40578 13.0011 9.01397 12.9229 8.51207L14.1765 8.39134C14.2333 8.63755 14.354 8.82339 14.5387 8.94886C14.7234 9.07434 14.9637 9.13707 15.2596 9.13707C15.565 9.13707 15.81 9.07434 15.9947 8.94886C16.1817 8.82339 16.2752 8.66832 16.2752 8.48366C16.2752 8.32741 16.2148 8.19839 16.0941 8.09659C15.9757 7.99479 15.7911 7.91667 15.5401 7.86222L14.6097 7.6669C14.0865 7.558 13.6995 7.37453 13.4485 7.11648C13.1976 6.85606 13.0733 6.52699 13.0756 6.12926C13.0733 5.79309 13.1644 5.50189 13.3491 5.25568C13.5361 5.0071 13.7953 4.81534 14.1268 4.6804C14.4606 4.54309 14.8453 4.47443 15.2809 4.47443C15.9201 4.47443 16.4232 4.61056 16.7901 4.88281C17.1594 5.15507 17.3879 5.5232 17.4755 5.98722ZM19.4446 10.0781C19.2292 10.0781 19.0445 10.0024 18.8906 9.85085C18.7367 9.69934 18.661 9.51468 18.6634 9.29688C18.661 9.08381 18.7367 8.90152 18.8906 8.75C19.0445 8.59848 19.2292 8.52273 19.4446 8.52273C19.6529 8.52273 19.834 8.59848 19.9879 8.75C20.1442 8.90152 20.2235 9.08381 20.2259 9.29688C20.2235 9.44129 20.1856 9.57268 20.1122 9.69105C20.0412 9.80942 19.9465 9.90412 19.8281 9.97514C19.7121 10.0438 19.5843 10.0781 19.4446 10.0781ZM23.7947 10V9.0483L26.3196 6.57315C26.5611 6.32931 26.7623 6.11269 26.9233 5.9233C27.0843 5.7339 27.205 5.55043 27.2855 5.37287C27.366 5.19531 27.4062 5.00592 27.4062 4.80469C27.4062 4.57505 27.3542 4.37855 27.25 4.2152C27.1458 4.04948 27.0026 3.92164 26.8203 3.83168C26.638 3.74171 26.4309 3.69673 26.1989 3.69673C25.9598 3.69673 25.7502 3.74645 25.5703 3.84588C25.3904 3.94294 25.2507 4.08144 25.1513 4.26136C25.0542 4.44129 25.0057 4.65554 25.0057 4.90412H23.7521C23.7521 4.44247 23.8575 4.04119 24.0682 3.70028C24.2789 3.35937 24.5689 3.09541 24.9382 2.90838C25.3099 2.72135 25.736 2.62784 26.2166 2.62784C26.7043 2.62784 27.1328 2.71899 27.5021 2.90128C27.8714 3.08357 28.1579 3.33333 28.3615 3.65057C28.5675 3.9678 28.6705 4.33002 28.6705 4.73722C28.6705 5.00947 28.6184 5.27699 28.5142 5.53977C28.41 5.80256 28.2266 6.09375 27.9638 6.41335C27.7034 6.73295 27.3376 7.12003 26.8665 7.57457L25.6129 8.84943V8.89915H28.7805V10H23.7947ZM32.5305 2.62784C32.8786 2.63021 33.2171 2.69176 33.5462 2.8125C33.8776 2.93087 34.1759 3.125 34.4411 3.39489C34.7062 3.66241 34.9169 4.02107 35.0732 4.47088C35.2294 4.92069 35.3075 5.47704 35.3075 6.13991C35.3099 6.76491 35.2436 7.32363 35.1087 7.81605C34.9761 8.30611 34.7855 8.72041 34.5369 9.05895C34.2884 9.39749 33.9889 9.65554 33.6385 9.8331C33.2881 10.0107 32.8939 10.0994 32.456 10.0994C31.9967 10.0994 31.5895 10.0095 31.2344 9.82955C30.8816 9.64962 30.5964 9.40341 30.3786 9.09091C30.1607 8.77841 30.027 8.42093 29.9773 8.01847H31.2734C31.3397 8.30729 31.4747 8.53693 31.6783 8.70739C31.8842 8.87547 32.1435 8.95952 32.456 8.95952C32.9602 8.95952 33.3485 8.74053 33.6207 8.30256C33.893 7.86458 34.0291 7.25616 34.0291 6.47727H33.9794C33.8634 6.68561 33.7131 6.86553 33.5284 7.01705C33.3438 7.16619 33.1342 7.28101 32.8999 7.36151C32.6679 7.442 32.4216 7.48224 32.1612 7.48224C31.7351 7.48224 31.3516 7.38045 31.0107 7.17685C30.6721 6.97325 30.4034 6.69389 30.2045 6.33878C30.008 5.98366 29.9086 5.57765 29.9062 5.12074C29.9062 4.64725 30.0152 4.2223 30.233 3.84588C30.4531 3.46709 30.7597 3.1688 31.1527 2.95099C31.5457 2.73082 32.005 2.62311 32.5305 2.62784ZM32.5341 3.69318C32.2784 3.69318 32.0476 3.75592 31.8416 3.88139C31.638 4.0045 31.477 4.17259 31.3587 4.38565C31.2427 4.59635 31.1847 4.83191 31.1847 5.09233C31.187 5.35038 31.245 5.58475 31.3587 5.79545C31.4747 6.00616 31.6321 6.17306 31.831 6.29616C32.0322 6.41927 32.2618 6.48082 32.5199 6.48082C32.7116 6.48082 32.8904 6.44413 33.0561 6.37074C33.2218 6.29735 33.3662 6.19555 33.4893 6.06534C33.6148 5.93277 33.7119 5.78243 33.7805 5.61435C33.8516 5.44626 33.8859 5.2687 33.8835 5.08168C33.8835 4.8331 33.8243 4.60346 33.706 4.39276C33.59 4.18205 33.4302 4.01278 33.2266 3.88494C33.0253 3.7571 32.7945 3.69318 32.5341 3.69318ZM39.0149 2.62784C39.3629 2.63021 39.7015 2.69176 40.0305 2.8125C40.362 2.93087 40.6603 3.125 40.9254 3.39489C41.1906 3.66241 41.4013 4.02107 41.5575 4.47088C41.7138 4.92069 41.7919 5.47704 41.7919 6.13991C41.7943 6.76491 41.728 7.32363 41.593 7.81605C41.4605 8.30611 41.2699 8.72041 41.0213 9.05895C40.7727 9.39749 40.4732 9.65554 40.1229 9.8331C39.7725 10.0107 39.3783 10.0994 38.9403 10.0994C38.4811 10.0994 38.0739 10.0095 37.7188 9.82955C37.366 9.64962 37.0807 9.40341 36.8629 9.09091C36.6451 8.77841 36.5114 8.42093 36.4616 8.01847H37.7578C37.8241 8.30729 37.959 8.53693 38.1626 8.70739C38.3686 8.87547 38.6278 8.95952 38.9403 8.95952C39.4446 8.95952 39.8329 8.74053 40.1051 8.30256C40.3774 7.86458 40.5135 7.25616 40.5135 6.47727H40.4638C40.3478 6.68561 40.1974 6.86553 40.0128 7.01705C39.8281 7.16619 39.6186 7.28101 39.3842 7.36151C39.1522 7.442 38.906 7.48224 38.6456 7.48224C38.2195 7.48224 37.8359 7.38045 37.495 7.17685C37.1565 6.97325 36.8878 6.69389 36.6889 6.33878C36.4924 5.98366 36.393 5.57765 36.3906 5.12074C36.3906 4.64725 36.4995 4.2223 36.7173 3.84588C36.9375 3.46709 37.2441 3.1688 37.6371 2.95099C38.0301 2.73082 38.4893 2.62311 39.0149 2.62784ZM39.0185 3.69318C38.7628 3.69318 38.532 3.75592 38.326 3.88139C38.1224 4.0045 37.9614 4.17259 37.843 4.38565C37.727 4.59635 37.669 4.83191 37.669 5.09233C37.6714 5.35038 37.7294 5.58475 37.843 5.79545C37.959 6.00616 38.1165 6.17306 38.3153 6.29616C38.5166 6.41927 38.7462 6.48082 39.0043 6.48082C39.196 6.48082 39.3748 6.44413 39.5405 6.37074C39.7062 6.29735 39.8506 6.19555 39.9737 6.06534C40.0992 5.93277 40.1963 5.78243 40.2649 5.61435C40.3359 5.44626 40.3703 5.2687 40.3679 5.08168C40.3679 4.8331 40.3087 4.60346 40.1903 4.39276C40.0743 4.18205 39.9145 4.01278 39.7109 3.88494C39.5097 3.7571 39.2789 3.69318 39.0185 3.69318ZM45.4993 2.62784C45.8473 2.63021 46.1858 2.69176 46.5149 2.8125C46.8464 2.93087 47.1446 3.125 47.4098 3.39489C47.675 3.66241 47.8857 4.02107 48.0419 4.47088C48.1982 4.92069 48.2763 5.47704 48.2763 6.13991C48.2786 6.76491 48.2124 7.32363 48.0774 7.81605C47.9448 8.30611 47.7543 8.72041 47.5057 9.05895C47.2571 9.39749 46.9576 9.65554 46.6072 9.8331C46.2569 10.0107 45.8627 10.0994 45.4247 10.0994C44.9654 10.0994 44.5582 10.0095 44.2031 9.82955C43.8504 9.64962 43.5651 9.40341 43.3473 9.09091C43.1295 8.77841 42.9957 8.42093 42.946 8.01847H44.2422C44.3085 8.30729 44.4434 8.53693 44.647 8.70739C44.853 8.87547 45.1122 8.95952 45.4247 8.95952C45.929 8.95952 46.3172 8.74053 46.5895 8.30256C46.8617 7.86458 46.9979 7.25616 46.9979 6.47727H46.9482C46.8321 6.68561 46.6818 6.86553 46.4972 7.01705C46.3125 7.16619 46.103 7.28101 45.8686 7.36151C45.6366 7.442 45.3904 7.48224 45.13 7.48224C44.7038 7.48224 44.3203 7.38045 43.9794 7.17685C43.6409 6.97325 43.3722 6.69389 43.1733 6.33878C42.9768 5.98366 42.8774 5.57765 42.875 5.12074C42.875 4.64725 42.9839 4.2223 43.2017 3.84588C43.4219 3.46709 43.7285 3.1688 44.1214 2.95099C44.5144 2.73082 44.9737 2.62311 45.4993 2.62784ZM45.5028 3.69318C45.2472 3.69318 45.0163 3.75592 44.8104 3.88139C44.6068 4.0045 44.4458 4.17259 44.3274 4.38565C44.2114 4.59635 44.1534 4.83191 44.1534 5.09233C44.1558 5.35038 44.2138 5.58475 44.3274 5.79545C44.4434 6.00616 44.6009 6.17306 44.7997 6.29616C45.0009 6.41927 45.2306 6.48082 45.4886 6.48082C45.6804 6.48082 45.8591 6.44413 46.0249 6.37074C46.1906 6.29735 46.335 6.19555 46.4581 6.06534C46.5836 5.93277 46.6806 5.78243 46.7493 5.61435C46.8203 5.44626 46.8546 5.2687 46.8523 5.08168C46.8523 4.8331 46.7931 4.60346 46.6747 4.39276C46.5587 4.18205 46.3989 4.01278 46.1953 3.88494C45.9941 3.7571 45.7633 3.69318 45.5028 3.69318ZM52.4418 2.38636L50.098 11.0938H48.9723L51.3161 2.38636H52.4418ZM56.5682 6.44176V7.5H53.294V6.44176H56.5682Z" fill="black"/>
<path d="M1 11L59 4" stroke="#FF0000"/>
</svg>
