<svg width="1440" height="79" viewBox="0 0 1440 79" fill="none" xmlns="http://www.w3.org/2000/svg">
<path d="M893.18 20.5V59H901.155V20.5H893.18ZM936.844 20.5V44.37L909.454 18.575V59H917.044V35.13L944.434 60.925V20.5H936.844ZM968.199 45.58L957.749 20.5H948.674L968.199 61.255L987.724 20.5H978.594L968.199 45.58ZM997.2 39.75C997.2 37.2933 997.713 35.1117 998.74 33.205C999.767 31.2983 1001.18 29.795 1002.98 28.695C1004.77 27.595 1006.86 27.045 1009.25 27.045C1011.67 27.045 1013.77 27.595 1015.57 28.695C1017.37 29.795 1018.76 31.2983 1019.75 33.205C1020.74 35.1117 1021.24 37.2933 1021.24 39.75C1021.24 42.2067 1020.72 44.3883 1019.7 46.295C1018.71 48.2017 1017.31 49.705 1015.52 50.805C1013.72 51.905 1011.63 52.455 1009.25 52.455C1006.86 52.455 1004.77 51.905 1002.98 50.805C1001.18 49.705 999.767 48.2017 998.74 46.295C997.713 44.3883 997.2 42.2067 997.2 39.75ZM988.895 39.75C988.895 42.6467 989.39 45.3417 990.38 47.835C991.37 50.2917 992.782 52.4367 994.615 54.27C996.448 56.1033 998.593 57.5333 1001.05 58.56C1003.54 59.55 1006.28 60.045 1009.25 60.045C1012.22 60.045 1014.93 59.55 1017.39 58.56C1019.88 57.5333 1022.02 56.1033 1023.82 54.27C1025.65 52.4367 1027.07 50.2917 1028.06 47.835C1029.08 45.3417 1029.6 42.6467 1029.6 39.75C1029.6 36.8167 1029.08 34.14 1028.06 31.72C1027.07 29.2633 1025.64 27.1367 1023.77 25.34C1021.93 23.5433 1019.79 22.1683 1017.33 21.215C1014.87 20.225 1012.18 19.73 1009.25 19.73C1006.35 19.73 1003.65 20.225 1001.16 21.215C998.703 22.1683 996.558 23.5433 994.725 25.34C992.892 27.1367 991.462 29.2633 990.435 31.72C989.408 34.14 988.895 36.8167 988.895 39.75ZM1035.68 20.5V59H1043.65V20.5H1035.68ZM1058.27 39.75C1058.27 37.1833 1058.84 34.965 1059.98 33.095C1061.15 31.225 1062.67 29.795 1064.54 28.805C1066.41 27.7783 1068.45 27.265 1070.65 27.265C1072.48 27.265 1074.11 27.5033 1075.54 27.98C1076.97 28.4567 1078.26 29.0983 1079.39 29.905C1080.57 30.7117 1081.58 31.5917 1082.42 32.545V23.69C1080.84 22.4433 1079.12 21.4717 1077.25 20.775C1075.42 20.0783 1073.09 19.73 1070.26 19.73C1067.33 19.73 1064.6 20.2067 1062.07 21.16C1059.58 22.1133 1057.39 23.4883 1055.52 25.285C1053.69 27.0817 1052.26 29.2083 1051.23 31.665C1050.24 34.085 1049.75 36.78 1049.75 39.75C1049.75 42.72 1050.24 45.4333 1051.23 47.89C1052.26 50.31 1053.69 52.4183 1055.52 54.215C1057.39 56.0117 1059.58 57.3867 1062.07 58.34C1064.6 59.2933 1067.33 59.77 1070.26 59.77C1073.09 59.77 1075.42 59.4217 1077.25 58.725C1079.12 58.0283 1080.84 57.0567 1082.42 55.81V46.955C1081.58 47.9083 1080.57 48.7883 1079.39 49.595C1078.26 50.4017 1076.97 51.0433 1075.54 51.52C1074.11 51.9967 1072.48 52.235 1070.65 52.235C1068.45 52.235 1066.41 51.74 1064.54 50.75C1062.67 49.7233 1061.15 48.275 1059.98 46.405C1058.84 44.4983 1058.27 42.28 1058.27 39.75ZM1095.31 59H1114.72V52.345H1095.31V59ZM1095.31 27.155H1114.72V20.5H1095.31V27.155ZM1095.31 41.84H1113.62V35.295H1095.31V41.84ZM1090.25 20.5V59H1097.84V20.5H1090.25Z" fill="#00264A"/>
<rect y="5" width="880" height="69" fill="#00264A"/>
<rect x="1127" y="5" width="313" height="69" fill="#00264A"/>
</svg>
